<svg xmlns="http://www.w3.org/2000/svg" xmlns:xlink="http://www.w3.org/1999/xlink" width="331" zoomAndPan="magnify" viewBox="0 0 248.25 95.249998" height="127" preserveAspectRatio="xMidYMid meet" version="1.0"><defs><g/><clipPath id="ebd307d792"><path d="M 90.84375 79.253906 L 110.191406 79.253906 L 110.191406 80.742188 L 90.84375 80.742188 Z M 90.84375 79.253906 " clip-rule="nonzero"/></clipPath><clipPath id="dc28505d8b"><path d="M 203.867188 79.253906 L 223.214844 79.253906 L 223.214844 80.742188 L 203.867188 80.742188 Z M 203.867188 79.253906 " clip-rule="nonzero"/></clipPath><clipPath id="cc59bdc8ca"><path d="M 14 11.261719 L 75.753906 11.261719 L 75.753906 78 L 14 78 Z M 14 11.261719 " clip-rule="nonzero"/></clipPath><clipPath id="66ec011147"><path d="M 0.597656 22 L 64 22 L 64 87.90625 L 0.597656 87.90625 Z M 0.597656 22 " clip-rule="nonzero"/></clipPath></defs><g fill="#ffffff" fill-opacity="1"><g transform="translate(115.046299, 84.567218)"><g><path d="M 11.34375 -8.296875 L 8.9375 0 L 7.734375 0 L 5.796875 -6.671875 L 3.796875 0 L 2.59375 0.015625 L 0.28125 -8.296875 L 1.421875 -8.296875 L 3.234375 -1.265625 L 5.234375 -8.296875 L 6.453125 -8.296875 L 8.359375 -1.28125 L 10.1875 -8.296875 Z M 11.34375 -8.296875 "/></g></g></g><g fill="#ffffff" fill-opacity="1"><g transform="translate(127.047814, 84.567218)"><g><path d="M 0.515625 -3.28125 C 0.515625 -3.945312 0.648438 -4.53125 0.921875 -5.03125 C 1.191406 -5.539062 1.5625 -5.929688 2.03125 -6.203125 C 2.5 -6.484375 3.023438 -6.625 3.609375 -6.625 C 4.179688 -6.625 4.675781 -6.5 5.09375 -6.25 C 5.519531 -6.007812 5.832031 -5.703125 6.03125 -5.328125 L 6.03125 -6.53125 L 7.125 -6.53125 L 7.125 0 L 6.03125 0 L 6.03125 -1.21875 C 5.820312 -0.832031 5.503906 -0.515625 5.078125 -0.265625 C 4.648438 -0.015625 4.15625 0.109375 3.59375 0.109375 C 3.007812 0.109375 2.484375 -0.03125 2.015625 -0.3125 C 1.554688 -0.601562 1.191406 -1.003906 0.921875 -1.515625 C 0.648438 -2.035156 0.515625 -2.625 0.515625 -3.28125 Z M 6.03125 -3.28125 C 6.03125 -3.769531 5.929688 -4.195312 5.734375 -4.5625 C 5.535156 -4.925781 5.265625 -5.203125 4.921875 -5.390625 C 4.585938 -5.585938 4.222656 -5.6875 3.828125 -5.6875 C 3.421875 -5.6875 3.050781 -5.59375 2.71875 -5.40625 C 2.382812 -5.21875 2.117188 -4.941406 1.921875 -4.578125 C 1.722656 -4.210938 1.625 -3.78125 1.625 -3.28125 C 1.625 -2.78125 1.722656 -2.34375 1.921875 -1.96875 C 2.117188 -1.601562 2.382812 -1.320312 2.71875 -1.125 C 3.050781 -0.9375 3.421875 -0.84375 3.828125 -0.84375 C 4.222656 -0.84375 4.585938 -0.9375 4.921875 -1.125 C 5.265625 -1.320312 5.535156 -1.601562 5.734375 -1.96875 C 5.929688 -2.34375 6.03125 -2.78125 6.03125 -3.28125 Z M 6.03125 -3.28125 "/></g></g></g><g fill="#ffffff" fill-opacity="1"><g transform="translate(135.477452, 84.567218)"><g><path d="M 2.234375 -5.625 L 2.234375 -1.78125 C 2.234375 -1.46875 2.300781 -1.242188 2.4375 -1.109375 C 2.570312 -0.984375 2.804688 -0.921875 3.140625 -0.921875 L 3.9375 -0.921875 L 3.9375 0 L 2.96875 0 C 2.363281 0 1.910156 -0.132812 1.609375 -0.40625 C 1.304688 -0.6875 1.15625 -1.144531 1.15625 -1.78125 L 1.15625 -5.625 L 0.3125 -5.625 L 0.3125 -6.53125 L 1.15625 -6.53125 L 1.15625 -8.171875 L 2.234375 -8.171875 L 2.234375 -6.53125 L 3.9375 -6.53125 L 3.9375 -5.625 Z M 2.234375 -5.625 "/></g></g></g><g fill="#ffffff" fill-opacity="1"><g transform="translate(140.192326, 84.567218)"><g><path d="M 0.515625 -3.28125 C 0.515625 -3.945312 0.648438 -4.53125 0.921875 -5.03125 C 1.191406 -5.539062 1.566406 -5.929688 2.046875 -6.203125 C 2.523438 -6.484375 3.070312 -6.625 3.6875 -6.625 C 4.488281 -6.625 5.148438 -6.429688 5.671875 -6.046875 C 6.191406 -5.660156 6.535156 -5.117188 6.703125 -4.421875 L 5.53125 -4.421875 C 5.425781 -4.828125 5.210938 -5.144531 4.890625 -5.375 C 4.566406 -5.601562 4.164062 -5.71875 3.6875 -5.71875 C 3.070312 -5.71875 2.570312 -5.503906 2.1875 -5.078125 C 1.8125 -4.648438 1.625 -4.050781 1.625 -3.28125 C 1.625 -2.488281 1.8125 -1.878906 2.1875 -1.453125 C 2.570312 -1.023438 3.070312 -0.8125 3.6875 -0.8125 C 4.164062 -0.8125 4.5625 -0.921875 4.875 -1.140625 C 5.195312 -1.359375 5.414062 -1.675781 5.53125 -2.09375 L 6.703125 -2.09375 C 6.523438 -1.425781 6.175781 -0.890625 5.65625 -0.484375 C 5.132812 -0.0859375 4.476562 0.109375 3.6875 0.109375 C 3.070312 0.109375 2.523438 -0.0234375 2.046875 -0.296875 C 1.566406 -0.578125 1.191406 -0.972656 0.921875 -1.484375 C 0.648438 -1.992188 0.515625 -2.59375 0.515625 -3.28125 Z M 0.515625 -3.28125 "/></g></g></g><g fill="#ffffff" fill-opacity="1"><g transform="translate(147.80043, 84.567218)"><g><path d="M 4.15625 -6.640625 C 4.644531 -6.640625 5.085938 -6.535156 5.484375 -6.328125 C 5.878906 -6.117188 6.191406 -5.800781 6.421875 -5.375 C 6.648438 -4.957031 6.765625 -4.445312 6.765625 -3.84375 L 6.765625 0 L 5.6875 0 L 5.6875 -3.6875 C 5.6875 -4.34375 5.523438 -4.84375 5.203125 -5.1875 C 4.878906 -5.53125 4.4375 -5.703125 3.875 -5.703125 C 3.300781 -5.703125 2.84375 -5.519531 2.5 -5.15625 C 2.164062 -4.800781 2 -4.285156 2 -3.609375 L 2 0 L 0.921875 0 L 0.921875 -8.8125 L 2 -8.8125 L 2 -5.59375 C 2.21875 -5.925781 2.515625 -6.179688 2.890625 -6.359375 C 3.265625 -6.546875 3.6875 -6.640625 4.15625 -6.640625 Z M 4.15625 -6.640625 "/></g></g></g><g fill="#ffffff" fill-opacity="1"><g transform="translate(155.80144, 84.567218)"><g/></g></g><g fill="#ffffff" fill-opacity="1"><g transform="translate(159.361406, 84.567218)"><g><path d="M 7.28125 0 L 6.203125 -1.09375 C 5.796875 -0.675781 5.363281 -0.363281 4.90625 -0.15625 C 4.445312 0.0390625 3.925781 0.140625 3.34375 0.140625 C 2.769531 0.140625 2.265625 0.0390625 1.828125 -0.15625 C 1.390625 -0.363281 1.046875 -0.660156 0.796875 -1.046875 C 0.554688 -1.429688 0.4375 -1.875 0.4375 -2.375 C 0.4375 -2.957031 0.597656 -3.46875 0.921875 -3.90625 C 1.253906 -4.351562 1.742188 -4.703125 2.390625 -4.953125 C 2.140625 -5.253906 1.957031 -5.53125 1.84375 -5.78125 C 1.726562 -6.039062 1.671875 -6.320312 1.671875 -6.625 C 1.671875 -6.96875 1.757812 -7.28125 1.9375 -7.5625 C 2.125 -7.84375 2.382812 -8.0625 2.71875 -8.21875 C 3.050781 -8.382812 3.4375 -8.46875 3.875 -8.46875 C 4.300781 -8.46875 4.671875 -8.382812 4.984375 -8.21875 C 5.304688 -8.050781 5.546875 -7.816406 5.703125 -7.515625 C 5.859375 -7.222656 5.929688 -6.894531 5.921875 -6.53125 L 4.828125 -6.53125 C 4.835938 -6.851562 4.75 -7.109375 4.5625 -7.296875 C 4.375 -7.484375 4.128906 -7.578125 3.828125 -7.578125 C 3.503906 -7.578125 3.242188 -7.484375 3.046875 -7.296875 C 2.859375 -7.117188 2.765625 -6.894531 2.765625 -6.625 C 2.765625 -6.382812 2.828125 -6.148438 2.953125 -5.921875 C 3.085938 -5.703125 3.3125 -5.429688 3.625 -5.109375 L 6.09375 -2.625 L 6.3125 -2.953125 L 7.125 -4.3125 L 8.28125 -4.3125 L 7.3125 -2.625 C 7.175781 -2.382812 7.015625 -2.132812 6.828125 -1.875 L 8.703125 0 Z M 3.34375 -0.78125 C 3.769531 -0.78125 4.15625 -0.863281 4.5 -1.03125 C 4.851562 -1.195312 5.179688 -1.457031 5.484375 -1.8125 L 3.046875 -4.265625 C 2.035156 -3.867188 1.53125 -3.253906 1.53125 -2.421875 C 1.53125 -1.953125 1.695312 -1.5625 2.03125 -1.25 C 2.363281 -0.9375 2.800781 -0.78125 3.34375 -0.78125 Z M 3.34375 -0.78125 "/></g></g></g><g fill="#ffffff" fill-opacity="1"><g transform="translate(168.541134, 84.567218)"><g/></g></g><g fill="#ffffff" fill-opacity="1"><g transform="translate(172.1011, 84.567218)"><g><path d="M 0.515625 -3.28125 C 0.515625 -3.945312 0.648438 -4.53125 0.921875 -5.03125 C 1.191406 -5.539062 1.566406 -5.929688 2.046875 -6.203125 C 2.523438 -6.484375 3.070312 -6.625 3.6875 -6.625 C 4.488281 -6.625 5.148438 -6.429688 5.671875 -6.046875 C 6.191406 -5.660156 6.535156 -5.117188 6.703125 -4.421875 L 5.53125 -4.421875 C 5.425781 -4.828125 5.210938 -5.144531 4.890625 -5.375 C 4.566406 -5.601562 4.164062 -5.71875 3.6875 -5.71875 C 3.070312 -5.71875 2.570312 -5.503906 2.1875 -5.078125 C 1.8125 -4.648438 1.625 -4.050781 1.625 -3.28125 C 1.625 -2.488281 1.8125 -1.878906 2.1875 -1.453125 C 2.570312 -1.023438 3.070312 -0.8125 3.6875 -0.8125 C 4.164062 -0.8125 4.5625 -0.921875 4.875 -1.140625 C 5.195312 -1.359375 5.414062 -1.675781 5.53125 -2.09375 L 6.703125 -2.09375 C 6.523438 -1.425781 6.175781 -0.890625 5.65625 -0.484375 C 5.132812 -0.0859375 4.476562 0.109375 3.6875 0.109375 C 3.070312 0.109375 2.523438 -0.0234375 2.046875 -0.296875 C 1.566406 -0.578125 1.191406 -0.972656 0.921875 -1.484375 C 0.648438 -1.992188 0.515625 -2.59375 0.515625 -3.28125 Z M 0.515625 -3.28125 "/></g></g></g><g fill="#ffffff" fill-opacity="1"><g transform="translate(179.709204, 84.567218)"><g><path d="M 4.15625 -6.640625 C 4.644531 -6.640625 5.085938 -6.535156 5.484375 -6.328125 C 5.878906 -6.117188 6.191406 -5.800781 6.421875 -5.375 C 6.648438 -4.957031 6.765625 -4.445312 6.765625 -3.84375 L 6.765625 0 L 5.6875 0 L 5.6875 -3.6875 C 5.6875 -4.34375 5.523438 -4.84375 5.203125 -5.1875 C 4.878906 -5.53125 4.4375 -5.703125 3.875 -5.703125 C 3.300781 -5.703125 2.84375 -5.519531 2.5 -5.15625 C 2.164062 -4.800781 2 -4.285156 2 -3.609375 L 2 0 L 0.921875 0 L 0.921875 -8.8125 L 2 -8.8125 L 2 -5.59375 C 2.21875 -5.925781 2.515625 -6.179688 2.890625 -6.359375 C 3.265625 -6.546875 3.6875 -6.640625 4.15625 -6.640625 Z M 4.15625 -6.640625 "/></g></g></g><g fill="#ffffff" fill-opacity="1"><g transform="translate(187.710214, 84.567218)"><g><path d="M 1.46875 -7.578125 C 1.269531 -7.578125 1.097656 -7.648438 0.953125 -7.796875 C 0.804688 -7.941406 0.734375 -8.117188 0.734375 -8.328125 C 0.734375 -8.523438 0.804688 -8.695312 0.953125 -8.84375 C 1.097656 -8.988281 1.269531 -9.0625 1.46875 -9.0625 C 1.675781 -9.0625 1.847656 -8.988281 1.984375 -8.84375 C 2.117188 -8.695312 2.1875 -8.523438 2.1875 -8.328125 C 2.1875 -8.117188 2.117188 -7.941406 1.984375 -7.796875 C 1.847656 -7.648438 1.675781 -7.578125 1.46875 -7.578125 Z M 2 -6.53125 L 2 0 L 0.921875 0 L 0.921875 -6.53125 Z M 2 -6.53125 "/></g></g></g><g fill="#ffffff" fill-opacity="1"><g transform="translate(191.02015, 84.567218)"><g><path d="M 2 -8.8125 L 2 0 L 0.921875 0 L 0.921875 -8.8125 Z M 2 -8.8125 "/></g></g></g><g fill="#ffffff" fill-opacity="1"><g transform="translate(194.330086, 84.567218)"><g><path d="M 2 -8.8125 L 2 0 L 0.921875 0 L 0.921875 -8.8125 Z M 2 -8.8125 "/></g></g></g><g fill="#45704d" fill-opacity="1"><g transform="translate(81.349281, 65.831641)"><g><path d="M 8.625 -5.265625 L 9.234375 -5.265625 C 9.828125 -5.265625 10.226562 -5.378906 10.4375 -5.609375 C 10.65625 -5.835938 10.765625 -6.429688 10.765625 -7.390625 L 10.765625 -32.84375 C 10.765625 -33.832031 10.65625 -34.441406 10.4375 -34.671875 C 10.226562 -34.910156 9.789062 -35.03125 9.125 -35.03125 L 8.625 -35.03125 Z M 10.171875 -40.28125 C 13.347656 -40.28125 15.378906 -39.800781 16.265625 -38.84375 C 17.191406 -37.914062 17.65625 -35.664062 17.65625 -32.09375 L 17.65625 -8.234375 C 17.65625 -4.597656 17.191406 -2.316406 16.265625 -1.390625 C 15.378906 -0.460938 13.363281 0 10.21875 0 L 1.734375 0 L 1.734375 -40.28125 Z M 10.171875 -40.28125 "/></g></g></g><g fill="#45704d" fill-opacity="1"><g transform="translate(102.132634, 65.831641)"><g><path d="M 8.625 -40.28125 L 8.625 0 L 1.734375 0 L 1.734375 -40.28125 Z M 8.625 -40.28125 "/></g></g></g><g fill="#45704d" fill-opacity="1"><g transform="translate(114.037282, 65.831641)"><g><path d="M 7.890625 -40.28125 L 11.65625 -20.1875 L 11.953125 -20.1875 L 11.859375 -40.28125 L 17.8125 -40.28125 L 17.8125 0 L 11.703125 0 L 7.890625 -20.640625 L 7.59375 -20.640625 L 7.734375 0 L 1.734375 0 L 1.734375 -40.28125 Z M 7.890625 -40.28125 "/></g></g></g><g fill="#45704d" fill-opacity="1"><g transform="translate(135.217446, 65.831641)"><g><path d="M 8.328125 -6.796875 C 8.328125 -5.671875 8.707031 -5.109375 9.46875 -5.109375 C 9.875 -5.109375 10.148438 -5.234375 10.296875 -5.484375 C 10.441406 -5.734375 10.515625 -6.171875 10.515625 -6.796875 L 10.515625 -33.4375 C 10.515625 -34.59375 10.132812 -35.171875 9.375 -35.171875 C 8.675781 -35.171875 8.328125 -34.59375 8.328125 -33.4375 Z M 1.484375 -32.5 C 1.484375 -36.070312 1.945312 -38.300781 2.875 -39.1875 C 3.800781 -40.082031 5.984375 -40.53125 9.421875 -40.53125 C 12.898438 -40.53125 15.101562 -40.066406 16.03125 -39.140625 C 16.945312 -38.210938 17.40625 -36 17.40625 -32.5 L 17.40625 -7.78125 C 17.40625 -4.28125 16.925781 -2.050781 15.96875 -1.09375 C 15.007812 -0.195312 12.863281 0.25 9.53125 0.25 C 6.050781 0.25 3.847656 -0.195312 2.921875 -1.09375 C 1.960938 -2.050781 1.484375 -4.28125 1.484375 -7.78125 Z M 1.484375 -32.5 "/></g></g></g><g fill="#45704d" fill-opacity="1"><g transform="translate(155.703193, 65.831641)"><g/></g></g><g fill="#facd39" fill-opacity="1"><g transform="translate(164.983705, 65.831641)"><g><path d="M 12.84375 -40.28125 L 12.84375 -35.03125 L 8.734375 -35.03125 L 8.734375 -24.75 L 12.84375 -24.75 L 12.84375 -19.453125 L 8.734375 -19.453125 L 8.734375 0 L 1.828125 0 L 1.828125 -40.28125 Z M 12.84375 -40.28125 "/></g></g></g><g fill="#facd39" fill-opacity="1"><g transform="translate(180.658086, 65.831641)"><g><path d="M 8.625 -40.28125 L 8.625 0 L 1.734375 0 L 1.734375 -40.28125 Z M 8.625 -40.28125 "/></g></g></g><g fill="#facd39" fill-opacity="1"><g transform="translate(192.562734, 65.831641)"><g><path d="M 8.625 -40.28125 L 8.625 -5.3125 L 12.75 -5.3125 L 12.75 0 L 1.734375 0 L 1.734375 -40.28125 Z M 8.625 -40.28125 "/></g></g></g><g fill="#facd39" fill-opacity="1"><g transform="translate(207.542685, 65.831641)"><g><path d="M 9.765625 -40.28125 L 12.296875 -20.984375 L 12.65625 -20.984375 L 15.1875 -40.28125 L 23.21875 -40.28125 L 23.21875 0 L 17.0625 0 L 17.3125 -23.8125 L 16.921875 -23.8125 L 14.28125 0 L 10.671875 0 L 8.03125 -23.8125 L 7.640625 -23.8125 L 7.890625 0 L 1.734375 0 L 1.734375 -40.28125 Z M 9.765625 -40.28125 "/></g></g></g><g clip-path="url(#ebd307d792)"><path fill="#ffffff" d="M 90.84375 79.253906 L 110.191406 79.253906 L 110.191406 80.742188 L 90.84375 80.742188 Z M 90.84375 79.253906 " fill-opacity="1" fill-rule="nonzero"/></g><g clip-path="url(#dc28505d8b)"><path fill="#ffffff" d="M 203.867188 79.253906 L 223.214844 79.253906 L 223.214844 80.742188 L 203.867188 80.742188 Z M 203.867188 79.253906 " fill-opacity="1" fill-rule="nonzero"/></g><g clip-path="url(#cc59bdc8ca)"><path fill="#facd39" d="M 28.414062 11.667969 C 29.25 11.269531 30.414062 11.53125 30.761719 12.453125 C 31.472656 14.367188 30.675781 16.609375 31.753906 18.417969 C 32.152344 19.183594 33.214844 19.21875 33.875 18.800781 C 35.875 17.601562 37.367188 15.742188 39.316406 14.453125 C 40.238281 13.84375 41.210938 12.972656 42.394531 13.164062 C 43.191406 13.289062 43.609375 14.105469 43.765625 14.820312 C 44.21875 16.75 43.820312 18.75 44.027344 20.714844 C 44.097656 21.183594 44.304688 21.847656 44.894531 21.777344 C 46.339844 21.707031 47.554688 20.835938 48.789062 20.195312 C 50.964844 19.0625 53.101562 17.722656 55.535156 17.253906 C 56.527344 16.992188 57.726562 17.550781 57.796875 18.664062 C 58.039062 21.480469 56.074219 23.933594 56.109375 26.734375 C 56.074219 27.222656 56.40625 27.675781 56.925781 27.65625 C 60.4375 27.898438 63.949219 26.421875 67.445312 27.1875 C 68.488281 27.34375 69.253906 28.441406 68.855469 29.464844 C 68.019531 31.710938 65.8125 33.152344 65.0625 35.449219 C 64.835938 36.109375 65.359375 36.683594 65.898438 37 C 68.140625 38.355469 70.800781 38.980469 72.886719 40.617188 C 73.667969 41.171875 74.035156 42.410156 73.285156 43.140625 C 71.773438 44.546875 69.515625 45.070312 68.347656 46.863281 C 67.8125 47.664062 68.382812 48.566406 68.976562 49.140625 C 70.90625 51.003906 73.601562 52.027344 75.09375 54.324219 C 75.753906 55.246094 75.511719 56.640625 74.519531 57.210938 C 72.558594 58.378906 70.089844 58.222656 68.160156 59.507812 C 67.429688 59.945312 66.835938 60.746094 66.976562 61.632812 C 67.324219 63.511719 68.644531 64.953125 69.53125 66.589844 C 69.878906 67.25 70.019531 68.277344 69.304688 68.765625 C 67.914062 69.71875 66.003906 68.972656 64.59375 69.808594 C 64.332031 71.824219 65.691406 73.984375 64.628906 75.949219 C 64.003906 77.269531 62.351562 77.515625 61.046875 77.21875 C 58.910156 76.816406 56.632812 76.765625 54.667969 75.722656 C 52.980469 74.800781 51.730469 73.21875 51.015625 71.441406 C 49.710938 68.15625 49.363281 64.589844 49.070312 61.09375 C 48.375 54.0625 48.078125 46.617188 44.375 40.375 C 42.410156 37.015625 39.210938 34.476562 35.59375 33.136719 C 31.003906 31.308594 26.015625 31.050781 21.183594 30.351562 C 18.972656 29.917969 16.503906 29.328125 15.113281 27.378906 C 14.332031 26.59375 15.359375 25.65625 15.773438 24.960938 C 18.660156 21.289062 21.582031 17.585938 24.921875 14.3125 C 26.015625 13.339844 27.042969 12.242188 28.414062 11.667969 Z M 28.414062 11.667969 " fill-opacity="1" fill-rule="nonzero"/></g><g clip-path="url(#66ec011147)"><path fill="#45704d" d="M 11.0625 22.472656 C 20.296875 22.246094 29.578125 22.523438 38.722656 23.953125 C 45.417969 25.378906 52.042969 28.144531 56.980469 32.980469 C 60.351562 36.335938 61.863281 41.035156 62.925781 45.558594 C 63.535156 51.226562 63.636719 57.039062 62.523438 62.65625 C 61.65625 66.9375 60.648438 71.269531 58.753906 75.234375 C 57.519531 77.792969 55.328125 79.742188 52.839844 81.046875 C 48.914062 83.0625 44.828125 84.90625 40.464844 85.792969 C 34.449219 86.714844 28.363281 87.066406 22.296875 87.691406 C 18.453125 87.707031 14.59375 87.898438 10.75 87.8125 C 8.804688 87.671875 6.769531 87.480469 5.03125 86.542969 C 3.292969 85.621094 2.128906 83.882812 1.554688 82.035156 C 0.71875 79.097656 0.859375 76 0.773438 72.972656 C 0.597656 66.917969 1.257812 60.882812 1.1875 54.828125 C 1.03125 48.722656 0.960938 42.636719 1.1875 36.546875 C 1.101562 34.632812 1.484375 32.738281 1.277344 30.824219 C 1.101562 29.832031 1.484375 28.875 1.46875 27.882812 C 1.449219 26.628906 1.414062 25.238281 2.128906 24.160156 C 2.789062 23.222656 4.023438 23.152344 5.046875 22.976562 C 7.03125 22.558594 9.066406 22.613281 11.0625 22.472656 Z M 23.214844 42.894531 C 21.945312 44.792969 23.25 47.367188 22.398438 49.382812 C 22.363281 52.183594 22.503906 54.96875 22.46875 57.753906 C 22.519531 59.542969 22.3125 61.421875 23.09375 63.09375 C 23.582031 64.171875 24.972656 64.433594 26.015625 64.117188 C 28.136719 63.71875 30.101562 62.398438 31.179688 60.519531 C 32.570312 57.890625 33.472656 54.917969 33.316406 51.925781 C 33.160156 48.394531 30.882812 45.019531 27.597656 43.679688 C 26.207031 43.175781 24.730469 42.6875 23.214844 42.894531 Z M 23.214844 42.894531 " fill-opacity="1" fill-rule="nonzero"/></g><path fill="#3d3930" d="M 33.820312 25.707031 C 35.195312 25.132812 37.230469 26.734375 36.601562 28.214844 C 35.75 29.429688 33.472656 29.394531 32.847656 27.953125 C 32.464844 27.101562 32.953125 26.054688 33.820312 25.707031 Z M 26.851562 80.855469 C 28.1875 80.191406 29.265625 81.65625 29.355469 82.855469 C 29.164062 84.507812 26.796875 85.21875 25.808594 83.847656 C 25.007812 82.820312 25.683594 81.253906 26.851562 80.855469 Z M 19.097656 76.851562 C 20.226562 76.558594 21.355469 77.722656 21.738281 78.730469 C 22.695312 82.332031 19.027344 86.175781 15.359375 85.203125 C 13.464844 84.804688 12.316406 82.507812 13.238281 80.765625 C 14.226562 78.4375 16.730469 77.269531 19.097656 76.851562 Z M 7.046875 69.5625 C 9.273438 69.597656 11.117188 71.375 12.105469 73.253906 C 13.375 76.105469 13.273438 80.035156 10.734375 82.160156 C 9.222656 83.394531 7.082031 82.332031 6.265625 80.785156 C 4.753906 78.105469 3.988281 74.816406 4.648438 71.773438 C 4.824219 70.589844 5.882812 69.703125 7.046875 69.5625 Z M 16.695312 69.023438 C 17.894531 68.449219 19.289062 69.511719 19.390625 70.765625 C 19.859375 72.746094 18.070312 75.269531 15.898438 74.488281 C 13.722656 73.304688 14.453125 69.703125 16.695312 69.023438 Z M 14.992188 63.285156 C 16.226562 63.074219 17.132812 64.398438 16.75 65.527344 C 16.660156 66.9375 14.820312 67.929688 13.742188 66.867188 C 12.578125 65.71875 13.585938 63.71875 14.992188 63.285156 Z M 7.585938 61.179688 C 9.066406 60.847656 10.769531 61.5625 11.324219 63.023438 C 11.96875 64.953125 10.769531 67.179688 8.875 67.859375 C 7.167969 68.554688 4.699219 67.859375 4.214844 65.929688 C 3.640625 63.734375 5.5 61.597656 7.585938 61.179688 Z M 48.042969 53.230469 C 49.207031 52.707031 50.40625 53.804688 50.6875 54.882812 C 50.6875 56.449219 48.511719 57.628906 47.296875 56.480469 C 46.148438 55.542969 46.84375 53.75 48.042969 53.230469 Z M 57.953125 47.105469 C 59.152344 46.707031 60.316406 47.574219 60.941406 48.550781 C 62.523438 51.664062 61.152344 56.34375 57.570312 57.300781 C 55.292969 58.066406 52.5625 56.449219 52.476562 53.976562 C 52.460938 50.8125 55.050781 48.046875 57.953125 47.105469 Z M 48.738281 44.164062 C 50.007812 43.90625 51.292969 44.304688 52.355469 45 C 53.484375 45.488281 53.570312 47.054688 53.015625 48.011719 C 51.484375 50.464844 46.582031 50.082031 46.339844 46.863281 C 46.234375 45.488281 47.453125 44.375 48.738281 44.164062 Z M 43.140625 38.808594 C 44.601562 38.285156 45.730469 39.644531 46.097656 40.894531 C 45.765625 42.929688 42.445312 43.488281 41.507812 41.644531 C 40.949219 40.40625 41.921875 39.050781 43.140625 38.808594 Z M 49.417969 31.832031 C 50.40625 31.640625 51.347656 32.164062 52.214844 32.5625 C 54.910156 34.007812 56.804688 36.617188 57.902344 39.433594 C 58.40625 40.914062 58.699219 42.808594 57.585938 44.078125 C 56.40625 45.175781 54.613281 44.636719 53.449219 43.78125 C 50.355469 41.433594 48.511719 37.796875 47.433594 34.199219 C 47.765625 33.207031 48.339844 32.09375 49.417969 31.832031 Z M 42.460938 28.179688 C 43.730469 28.109375 45.296875 28.421875 45.992188 29.621094 C 47.226562 32.960938 43.539062 36.617188 40.203125 35.972656 C 38.152344 35.398438 37.089844 32.859375 37.976562 30.960938 C 38.691406 29.1875 40.636719 28.265625 42.460938 28.179688 Z M 34.777344 27.484375 C 34.796875 27.464844 34.8125 27.464844 34.8125 27.464844 C 34.8125 27.464844 34.828125 27.464844 34.828125 27.464844 C 34.828125 27.464844 34.847656 27.464844 34.847656 27.464844 C 34.847656 27.464844 34.847656 27.464844 34.863281 27.464844 C 34.863281 27.464844 34.863281 27.464844 34.882812 27.464844 C 34.882812 27.464844 34.882812 27.464844 34.898438 27.464844 C 34.917969 27.464844 34.898438 27.464844 34.917969 27.464844 C 34.917969 27.464844 34.917969 27.464844 34.933594 27.464844 C 34.933594 27.464844 34.933594 27.464844 34.933594 27.449219 C 34.933594 27.449219 34.933594 27.449219 34.933594 27.429688 L 34.933594 27.394531 C 34.933594 27.394531 34.933594 27.378906 34.933594 27.378906 L 34.933594 27.359375 L 34.933594 27.5 L 34.933594 27.484375 Z M 34.777344 27.484375 " fill-opacity="1" fill-rule="nonzero"/></svg>