<svg xmlns="http://www.w3.org/2000/svg" width="276" height="350" viewBox="0 0 276 350"><rect width="100%" height="100%" fill="#DDDDDD"/><path fill="#999999" d="M56.88 167.04v13.01h-2.43v-13.01zm4.78 13.01h-2.22v-9.23h1.36q.43 0 .57.4l.14.68q.24-.27.51-.49.26-.23.56-.39.31-.16.65-.25.35-.1.76-.1.88 0 1.44.47.56.48.84 1.26.22-.46.54-.79t.71-.53q.39-.21.82-.31.44-.1.88-.1.77 0 1.36.24.6.23 1 .68.41.45.62 1.1t.21 1.48v5.88h-2.22v-5.88q0-.88-.39-1.32-.39-.45-1.14-.45-.34 0-.63.12-.29.11-.51.33t-.35.56q-.13.33-.13.76v5.88h-2.23v-5.88q0-.92-.37-1.35-.37-.42-1.09-.42-.49 0-.91.24t-.78.65zm17.73-2.39v-1.55q-.96.04-1.62.16-.65.13-1.05.31-.4.19-.57.45-.17.25-.17.54 0 .59.35.84.34.25.9.25.69 0 1.19-.24.5-.25.97-.76m-4.7-4.85-.39-.71q1.59-1.46 3.83-1.46.81 0 1.45.27t1.08.74.67 1.13q.23.65.23 1.44v5.83h-1.01q-.31 0-.48-.09-.17-.1-.27-.39l-.2-.66q-.35.31-.68.55-.34.24-.7.4t-.77.25q-.41.08-.9.08-.59 0-1.08-.15-.5-.16-.86-.48-.36-.31-.55-.78-.2-.47-.2-1.09 0-.35.11-.7.12-.34.39-.66.26-.31.69-.59.42-.28 1.03-.49.62-.2 1.44-.33.82-.14 1.87-.16v-.54q0-.93-.39-1.37-.4-.45-1.15-.45-.54 0-.89.13-.36.12-.63.28t-.49.28q-.22.13-.49.13-.23 0-.39-.12-.17-.12-.27-.29m12.33 2.4q.42 0 .72-.11.31-.12.51-.32.21-.19.31-.47t.1-.61q0-.69-.41-1.09t-1.23-.4q-.81 0-1.22.4t-.41 1.09q0 .32.1.6t.31.48q.2.2.51.32.31.11.71.11m2.52 5.25q0-.27-.17-.44-.16-.17-.44-.26-.28-.1-.65-.14-.37-.05-.79-.07l-.87-.04q-.44-.02-.86-.07-.37.2-.6.48t-.23.65q0 .25.12.46t.39.36q.26.15.68.24.43.09 1.04.09.62 0 1.07-.1.45-.09.74-.26.3-.17.43-.4.14-.23.14-.5m-.45-9.33h2.66v.83q0 .39-.48.48l-.83.16q.19.47.19 1.04 0 .69-.27 1.24-.28.55-.76.94-.49.39-1.15.6t-1.43.21q-.27 0-.52-.03-.25-.02-.49-.07-.43.26-.43.59 0 .27.25.41.26.13.68.18t.96.07q.54.01 1.11.06.57.04 1.11.15.54.12.96.36t.68.66.26 1.08q0 .61-.3 1.18-.31.58-.88 1.03t-1.4.72q-.83.28-1.9.28-1.04 0-1.81-.2-.78-.21-1.29-.54-.51-.34-.77-.78-.25-.44-.25-.92 0-.65.39-1.08.4-.44 1.08-.7-.37-.19-.59-.51-.21-.31-.21-.82 0-.21.07-.43.08-.22.23-.44.15-.21.37-.41.23-.19.53-.34-.7-.38-1.1-1.01t-.4-1.48q0-.68.28-1.24.27-.55.76-.94t1.16-.6 1.46-.21q.6 0 1.12.13.52.12.95.35m5.82 3.24h4.19q0-.43-.12-.81-.12-.39-.36-.67-.25-.29-.62-.46t-.87-.17q-.96 0-1.52.55-.55.55-.7 1.56m5.67 1.34h-5.72q.06.71.26 1.23.19.52.52.86.32.33.77.5.44.17.98.17t.93-.13q.4-.13.69-.28t.51-.28q.22-.12.43-.12.28 0 .41.2l.64.81q-.37.43-.83.73-.46.29-.96.47-.49.17-1.01.24-.52.08-1.01.08-.96 0-1.79-.32-.82-.32-1.44-.95-.61-.63-.96-1.55t-.35-2.14q0-.94.31-1.77.3-.84.87-1.45.57-.62 1.4-.98.82-.36 1.86-.36.87 0 1.61.28t1.27.82q.53.53.83 1.31t.3 1.78q0 .5-.11.68-.11.17-.41.17m13.76-3.75-.59.81q-.09.12-.19.2-.09.07-.27.07-.17 0-.34-.1-.16-.11-.38-.24-.23-.13-.54-.23-.31-.11-.77-.11-.58 0-1.02.22-.45.21-.74.6-.29.4-.43.96-.15.56-.15 1.27 0 .74.16 1.32.16.57.45.97.3.39.72.59.43.2.96.2t.86-.13.55-.29q.23-.15.39-.28.17-.13.38-.13.27 0 .4.2l.64.81q-.37.43-.8.73-.43.29-.9.47-.46.17-.95.24-.49.08-.98.08-.85 0-1.61-.32-.75-.32-1.32-.94-.57-.61-.9-1.49-.33-.89-.33-2.03 0-1.01.3-1.88.29-.87.86-1.5.56-.64 1.4-1t1.93-.36q1.03 0 1.81.33.78.34 1.4.96m5.56-1.29q1.03 0 1.87.33.84.34 1.44.95t.92 1.49q.33.89.33 1.97 0 1.1-.33 1.98-.32.89-.92 1.51t-1.44.95q-.84.34-1.87.34t-1.88-.34q-.85-.33-1.44-.95-.6-.62-.93-1.51-.33-.88-.33-1.98 0-1.08.33-1.97.33-.88.93-1.49.59-.61 1.44-.95.85-.33 1.88-.33m0 7.8q1.15 0 1.71-.77.55-.77.55-2.27 0-1.49-.55-2.27-.56-.79-1.71-.79-1.17 0-1.73.79t-.56 2.27q0 1.49.56 2.27.56.77 1.73.77m8.48 1.58h-2.22v-9.23h1.36q.43 0 .56.4l.15.68q.24-.27.51-.49.26-.23.56-.39t.65-.25q.35-.1.76-.1.87 0 1.44.47.56.48.84 1.26.21-.46.54-.79.32-.33.71-.53.39-.21.82-.31.44-.1.88-.1.76 0 1.36.24.59.23 1 .68.4.45.61 1.1.22.65.22 1.48v5.88h-2.23v-5.88q0-.88-.38-1.32-.39-.45-1.14-.45-.34 0-.63.12-.3.11-.52.33t-.34.56q-.13.33-.13.76v5.88h-2.23v-5.88q0-.92-.37-1.35-.38-.42-1.1-.42-.48 0-.9.24t-.78.65zm15.07 0h-2.22v-9.23h1.36q.43 0 .57.4l.14.68q.24-.27.51-.49.27-.23.57-.39t.65-.25q.34-.1.76-.1.87 0 1.43.47.56.48.84 1.26.22-.46.54-.79.33-.33.71-.53.39-.21.83-.31.43-.1.87-.1.77 0 1.36.24.6.23 1 .68.41.45.62 1.1t.21 1.48v5.88h-2.22v-5.88q0-.88-.39-1.32-.39-.45-1.13-.45-.35 0-.64.12-.29.11-.51.33t-.35.56q-.12.33-.12.76v5.88h-2.24v-5.88q0-.92-.37-1.35-.37-.42-1.09-.42-.49 0-.91.24t-.78.65zm12.93-9.23h2.23v9.23h-2.23zm2.54-2.7q0 .29-.12.54-.12.26-.31.45-.19.18-.46.3-.26.11-.55.11t-.55-.11q-.25-.12-.44-.3-.19-.19-.3-.45-.12-.25-.12-.54t.12-.55q.11-.26.3-.45t.44-.3q.26-.12.55-.12t.55.12q.27.11.46.3t.31.45.12.55m3.88 3.1.16.73q.28-.28.59-.52t.65-.4q.35-.17.75-.26.39-.1.86-.1.76 0 1.34.26.59.25.98.72.39.46.59 1.11.2.64.2 1.41v5.88h-2.22v-5.88q0-.84-.39-1.31-.38-.46-1.17-.46-.58 0-1.08.26-.51.26-.96.71v6.68h-2.22v-9.23h1.36q.43 0 .56.4m11.61 3.99q.41 0 .72-.11.3-.12.5-.32.21-.19.31-.47t.1-.61q0-.69-.41-1.09t-1.22-.4q-.82 0-1.23.4t-.41 1.09q0 .32.1.6t.31.48q.2.2.51.32.31.11.72.11m2.51 5.25q0-.27-.17-.44-.16-.17-.44-.26-.28-.1-.65-.14-.37-.05-.79-.07l-.86-.04q-.45-.02-.87-.07-.37.2-.6.48t-.23.65q0 .25.12.46t.39.36q.26.15.69.24.42.09 1.03.09.62 0 1.07-.1.45-.09.74-.26.3-.17.43-.4.14-.23.14-.5m-.44-9.33h2.65v.83q0 .39-.48.48l-.82.16q.18.47.18 1.04 0 .69-.27 1.24t-.76.94-1.15.6-1.42.21q-.27 0-.53-.03-.25-.02-.49-.07-.43.26-.43.59 0 .27.25.41.26.13.68.18.43.05.97.07.54.01 1.1.06.57.04 1.11.15.54.12.96.36.43.24.68.66.26.42.26 1.08 0 .61-.3 1.18-.3.58-.88 1.03-.57.45-1.4.72-.83.28-1.89.28-1.05 0-1.82-.2-.78-.21-1.29-.54-.51-.34-.76-.78-.26-.44-.26-.92 0-.65.4-1.08.39-.44 1.07-.7-.37-.19-.58-.51-.22-.31-.22-.82 0-.21.08-.43.07-.22.22-.44.15-.21.37-.41.23-.19.54-.34-.71-.38-1.11-1.01t-.4-1.48q0-.68.28-1.24.27-.55.76-.94t1.16-.6 1.47-.21q.59 0 1.11.13.52.12.96.35m14.57.68-.51.81q-.09.14-.19.2t-.25.06q-.16 0-.34-.09-.19-.09-.43-.21-.25-.11-.56-.2t-.73-.09q-.66 0-1.03.28t-.37.73q0 .3.19.5t.51.35q.32.16.73.28.4.12.82.26.42.15.82.33.41.19.73.47t.51.68q.2.4.2.95 0 .67-.24 1.23-.24.57-.71.98-.47.4-1.16.63-.68.23-1.58.23-.48 0-.94-.08-.45-.09-.87-.24t-.77-.36q-.36-.21-.63-.45l.51-.85q.1-.15.24-.23.13-.08.34-.08t.39.12l.43.25q.24.13.57.25t.83.12q.4 0 .68-.1.29-.09.47-.25.19-.15.27-.35.09-.2.09-.42 0-.32-.2-.53-.19-.21-.51-.36t-.73-.27q-.41-.13-.84-.27-.42-.14-.83-.34-.41-.19-.73-.49t-.51-.73q-.2-.43-.2-1.04 0-.57.23-1.08.22-.51.66-.9.43-.38 1.09-.61.65-.23 1.5-.23.96 0 1.74.32.78.31 1.31.82m5.86-1.14q1.02 0 1.86.33.84.34 1.44.95t.93 1.49q.32.89.32 1.97 0 1.1-.32 1.98-.33.89-.93 1.51t-1.44.95q-.84.34-1.86.34-1.04 0-1.89-.34-.84-.33-1.44-.95t-.93-1.51q-.33-.88-.33-1.98 0-1.08.33-1.97.33-.88.93-1.49t1.44-.95q.85-.33 1.89-.33m0 7.8q1.15 0 1.7-.77t.55-2.27q0-1.49-.55-2.27-.55-.79-1.7-.79-1.17 0-1.74.79-.56.79-.56 2.27 0 1.49.56 2.27.57.77 1.74.77m10.34-7.8q1.02 0 1.86.33.85.34 1.44.95.6.61.93 1.49.32.89.32 1.97 0 1.1-.32 1.98-.33.89-.93 1.51-.59.62-1.44.95-.84.34-1.86.34-1.04 0-1.88-.34-.85-.33-1.45-.95t-.93-1.51q-.32-.88-.32-1.98 0-1.08.32-1.97.33-.88.93-1.49t1.45-.95q.84-.33 1.88-.33m0 7.8q1.15 0 1.7-.77.56-.77.56-2.27 0-1.49-.56-2.27-.55-.79-1.7-.79-1.17 0-1.74.79-.56.79-.56 2.27 0 1.49.56 2.27.57.77 1.74.77m8.18-7.25.15.73q.28-.28.59-.52t.66-.4q.34-.17.74-.26.4-.1.86-.1.76 0 1.34.26.59.25.98.72.39.46.6 1.11.2.64.2 1.41v5.88h-2.23v-5.88q0-.84-.38-1.31-.39-.46-1.18-.46-.58 0-1.08.26-.51.26-.96.71v6.68h-2.22v-9.23h1.36q.43 0 .57.4"/></svg>